<?xml version="1.0" encoding="UTF-8" ?>
<!DOCTYPE svg PUBLIC "-//W3C//DTD SVG 1.1//EN" "http://www.w3.org/Graphics/SVG/1.1/DTD/svg11.dtd">
<svg width="1074pt" height="1074pt" viewBox="0 0 1074 1074" version="1.1" xmlns="http://www.w3.org/2000/svg">
<g id="#000000ff">
<path fill="#000000" opacity="1.00" d=" M 522.01 0.00 L 550.66 0.00 C 566.72 0.93 582.81 1.65 598.79 3.62 C 680.86 13.17 760.66 41.92 829.81 87.17 C 889.06 125.77 940.58 176.21 980.30 234.72 C 1034.44 314.02 1066.57 408.12 1072.31 503.95 C 1072.93 510.84 1072.41 517.84 1074.00 524.63 L 1074.00 547.05 C 1072.32 557.63 1072.73 568.38 1071.64 579.03 C 1065.05 663.08 1038.24 745.45 994.07 817.26 C 956.81 878.19 907.15 931.48 849.06 973.02 C 786.60 1017.73 714.47 1048.93 639.02 1063.45 C 615.56 1067.99 591.79 1071.00 567.93 1072.40 C 560.94 1072.88 553.87 1072.66 546.95 1074.00 L 526.83 1074.00 C 515.66 1072.28 504.31 1072.77 493.10 1071.53 C 443.06 1067.44 393.57 1056.39 346.63 1038.54 C 289.86 1017.04 236.76 985.85 190.40 946.66 C 133.69 898.82 87.11 839.06 54.59 772.38 C 26.58 715.24 8.95 653.07 2.64 589.76 C 1.26 576.89 0.82 563.95 0.00 551.04 L 0.00 522.41 C 0.84 508.59 1.36 494.74 2.92 480.97 C 10.79 405.24 35.02 331.25 73.53 265.57 C 115.15 194.26 173.58 132.88 242.69 87.71 C 309.67 43.71 386.70 15.17 466.14 4.69 C 484.66 2.04 503.35 1.09 522.01 0.00 M 502.56 7.80 C 455.31 10.83 408.44 20.17 363.70 35.69 C 290.50 60.88 223.03 102.47 167.53 156.43 C 111.16 211.01 67.19 278.32 39.94 351.90 C 14.19 420.94 3.13 495.41 7.68 568.96 C 12.84 655.34 39.67 740.32 85.05 814.00 C 120.97 872.74 168.66 924.20 224.28 964.78 C 267.37 996.18 315.20 1021.09 365.67 1038.30 C 459.87 1070.60 563.27 1075.45 660.08 1052.07 C 740.43 1032.92 816.10 994.53 879.10 941.13 C 935.25 893.72 981.29 834.43 1013.34 768.30 C 1055.09 682.73 1073.01 585.74 1064.66 490.90 C 1055.57 383.49 1012.60 279.26 943.24 196.74 C 898.07 142.67 841.98 97.77 779.35 65.51 C 694.58 21.65 597.79 1.52 502.56 7.80 Z" />
<path fill="#000000" opacity="1.00" d=" M 509.56 100.83 C 556.00 98.06 602.92 102.38 647.90 114.36 C 723.70 134.38 794.05 174.98 848.71 231.26 C 896.59 279.83 932.43 339.99 953.01 404.97 C 973.23 468.27 978.27 536.23 968.49 601.92 C 956.19 683.32 920.42 761.14 866.20 823.15 C 841.92 850.96 814.22 875.85 783.76 896.74 C 709.77 947.55 619.86 974.97 530.06 973.24 C 462.61 972.49 395.56 955.34 335.71 924.33 C 273.54 892.34 219.59 844.81 179.32 787.72 C 133.53 722.46 105.82 644.52 100.91 564.91 C 97.49 511.39 103.78 457.21 119.97 406.07 C 132.59 366.14 150.77 327.93 174.13 293.16 C 214.78 232.82 270.57 182.61 335.26 149.22 C 389.17 121.25 448.89 104.41 509.56 100.83 M 504.58 107.86 C 427.48 113.38 352.19 140.66 289.01 185.08 C 261.03 204.85 235.43 227.97 212.84 253.72 C 163.41 309.95 129.49 379.50 114.84 452.87 C 105.35 500.84 104.16 550.43 111.13 598.83 C 117.56 643.29 131.25 686.65 151.05 726.96 C 183.94 794.17 235.10 852.17 297.16 893.90 C 327.80 914.46 361.17 930.90 396.03 943.00 C 457.04 964.35 522.95 971.21 587.11 963.70 C 632.03 958.55 675.98 945.87 717.04 927.01 C 785.88 895.51 845.73 845.03 889.14 783.08 C 912.44 749.81 930.82 713.15 943.90 674.71 C 962.10 621.62 969.35 564.92 965.77 508.95 C 961.80 443.76 942.21 379.74 909.91 323.03 C 873.64 259.47 820.68 205.58 757.95 167.92 C 722.18 146.57 683.34 130.33 642.98 119.97 C 597.93 108.34 550.96 104.52 504.58 107.86 Z" />
<path fill="#000000" opacity="1.00" d=" M 179.39 329.04 C 178.49 324.69 180.72 318.84 186.00 319.41 C 216.33 319.42 246.67 319.41 277.01 319.42 C 279.02 319.27 280.87 320.31 282.13 321.82 C 300.07 341.96 317.98 362.12 335.93 382.24 C 421.04 349.47 511.49 328.47 602.98 327.83 C 652.67 327.63 702.56 333.99 750.12 348.59 C 790.56 360.83 828.93 379.53 864.01 403.01 C 887.71 419.09 910.12 437.35 929.22 458.77 C 940.17 471.27 950.26 484.80 956.93 500.12 C 960.29 508.41 963.73 517.42 961.68 526.50 C 958.14 541.98 949.85 555.86 940.51 568.52 C 925.89 587.97 907.99 604.72 889.01 619.84 C 844.40 654.91 792.76 681.10 737.99 696.03 C 709.87 703.84 680.97 708.66 651.93 711.32 C 654.42 715.78 656.87 720.26 659.32 724.74 C 677.59 724.83 695.87 724.60 714.13 724.85 C 719.07 726.21 722.64 730.48 725.62 734.45 C 733.34 745.66 737.52 760.23 733.45 773.59 C 729.51 785.88 719.84 795.54 709.02 802.13 C 703.83 805.05 698.14 807.82 692.03 807.61 C 630.12 807.50 568.21 807.70 506.31 807.51 C 499.12 799.03 493.07 789.53 485.95 780.97 C 474.46 776.97 462.76 773.49 451.20 769.66 C 453.05 773.54 455.59 777.62 454.80 782.12 C 454.21 786.24 450.31 790.14 445.92 789.21 C 441.59 788.22 438.97 783.32 439.57 779.09 C 440.37 774.66 442.70 770.73 444.90 766.87 C 442.46 763.28 440.30 759.39 439.29 755.14 C 438.14 750.57 440.93 744.81 445.86 744.07 C 449.99 743.46 453.59 747.13 454.26 750.98 C 455.21 754.95 452.86 758.64 451.72 762.30 C 456.99 760.38 462.06 757.94 467.20 755.70 C 462.20 748.72 456.85 741.99 451.86 735.01 C 448.89 731.11 451.75 724.23 457.01 724.77 C 481.69 724.73 506.37 724.75 531.05 724.76 C 527.96 718.93 524.52 713.28 521.47 707.43 C 457.89 699.08 395.67 681.83 335.89 658.83 C 317.95 678.89 300.09 699.02 282.20 719.12 C 280.92 720.65 279.10 721.79 277.03 721.58 C 246.39 721.56 215.75 721.64 185.12 721.55 C 181.70 721.59 179.14 718.33 179.42 715.05 C 179.41 670.33 179.43 625.62 179.41 580.91 C 162.84 570.32 146.64 559.08 131.68 546.30 C 124.73 540.30 117.87 533.99 112.71 526.33 C 110.73 523.65 110.46 519.93 111.55 516.85 C 113.29 513.37 115.91 510.42 118.42 507.49 C 128.53 496.47 140.48 487.35 152.47 478.49 C 161.24 472.07 170.30 466.07 179.42 460.16 C 179.40 416.45 179.45 372.75 179.39 329.04 M 191.24 331.24 C 191.29 371.77 191.28 412.30 191.24 452.82 C 233.50 426.96 278.28 405.34 324.23 386.92 C 307.74 368.34 291.19 349.81 274.68 331.24 C 246.87 331.22 219.05 331.30 191.24 331.24 M 517.95 345.92 C 470.30 352.63 423.41 364.30 377.82 379.62 C 337.83 393.06 298.74 409.18 260.97 427.99 C 225.16 445.76 190.35 465.74 157.88 489.10 C 213.52 460.93 272.40 439.64 332.21 422.21 C 380.67 408.21 430.03 397.24 479.96 389.98 C 574.28 376.35 671.28 375.19 764.77 395.31 C 784.91 399.70 804.95 404.80 824.44 411.58 C 854.55 422.25 883.24 436.91 909.51 455.08 C 900.39 445.65 890.30 437.20 880.04 429.03 C 850.70 406.16 818.17 387.43 783.86 373.10 C 744.77 356.89 703.19 346.97 661.16 342.50 C 613.53 337.43 565.33 339.28 517.95 345.92 M 529.50 395.75 C 438.21 404.58 348.40 426.28 262.16 457.28 C 225.03 470.82 188.50 486.19 153.59 504.78 C 194.28 493.63 235.64 485.06 277.17 477.66 C 323.82 469.52 370.76 463.07 417.88 458.32 C 521.15 448.01 625.38 445.76 728.87 454.17 C 772.87 458.10 817.02 462.59 860.07 472.92 C 887.60 479.48 914.96 487.39 940.80 499.07 C 929.69 484.88 915.40 473.56 900.76 463.22 C 873.81 444.67 844.12 430.10 813.03 419.92 C 772.57 407.27 730.70 399.39 688.55 395.18 C 635.69 389.93 582.35 390.71 529.50 395.75 M 340.11 479.61 C 294.80 486.06 249.69 494.04 205.06 504.17 C 183.73 509.03 162.40 514.08 141.54 520.70 C 154.67 524.30 167.75 528.14 181.00 531.29 C 270.36 553.07 361.63 566.35 453.21 574.24 C 558.44 582.71 664.56 583.17 769.55 571.32 C 803.92 567.74 838.12 562.19 871.57 553.43 C 893.37 547.63 915.11 541.09 935.64 531.63 C 939.72 529.47 945.11 527.82 946.61 522.91 C 948.07 518.67 945.34 514.15 941.44 512.43 C 928.31 505.42 914.17 500.53 900.06 495.90 C 863.96 484.42 826.69 476.70 789.09 472.15 C 738.61 465.67 687.77 462.18 636.90 461.06 C 537.68 458.99 438.33 465.52 340.11 479.61 M 154.75 537.02 C 206.15 563.91 260.60 584.62 315.94 601.79 C 362.49 616.21 409.94 627.71 457.98 635.88 C 552.29 651.79 649.52 655.40 743.91 638.14 C 774.86 632.20 805.77 624.98 835.05 613.12 C 862.07 602.07 887.94 587.96 911.19 570.25 C 921.99 561.93 932.35 552.85 940.76 542.07 C 906.89 557.17 870.74 566.41 834.47 573.64 C 803.94 579.44 773.01 582.78 742.10 585.73 C 637.97 595.21 532.99 593.59 428.95 583.82 C 343.19 575.55 257.79 562.34 174.08 541.76 C 167.61 540.30 161.30 538.11 154.75 537.02 M 157.62 551.77 C 199.84 582.32 246.01 607.05 293.44 628.45 C 369.84 662.56 450.83 687.56 534.10 697.25 C 580.52 702.54 627.62 703.30 673.98 697.09 C 708.51 692.45 742.59 684.11 775.09 671.49 C 804.02 660.25 831.65 645.71 857.42 628.44 C 876.08 615.79 893.95 601.80 909.79 585.74 C 874.22 610.44 834.22 628.76 792.17 639.20 C 710.50 660.76 625.04 664.94 541.10 658.13 C 445.97 650.27 352.28 628.37 262.43 596.43 C 226.67 583.59 191.46 569.08 157.62 551.77 M 191.23 588.22 C 191.29 628.73 191.28 669.25 191.24 709.76 C 219.05 709.70 246.86 709.77 274.68 709.76 C 291.15 691.22 307.70 672.74 324.13 654.16 C 278.16 635.82 233.50 614.01 191.23 588.22 M 535.87 709.22 C 538.75 714.41 541.65 719.59 544.44 724.83 C 578.30 724.87 612.16 724.86 646.02 724.86 C 643.72 720.59 641.32 716.38 638.94 712.17 C 604.58 714.15 570.06 713.07 535.87 709.22 M 467.59 736.51 C 482.40 756.28 497.13 776.12 511.99 795.86 C 570.65 795.82 629.31 795.87 687.97 795.89 C 690.98 795.79 694.15 796.25 697.01 795.04 C 704.63 791.99 711.32 786.80 716.54 780.50 C 721.01 775.10 723.90 768.15 723.25 761.05 C 722.49 751.92 718.58 742.87 711.93 736.50 C 630.48 736.45 549.03 736.51 467.59 736.51 M 444.65 750.69 C 443.15 753.99 445.43 757.31 446.75 760.27 C 448.07 757.21 450.64 753.61 448.63 750.29 C 447.70 748.57 445.30 748.95 444.65 750.69 M 456.68 765.87 C 464.67 768.77 472.83 771.15 480.90 773.81 C 477.44 769.18 473.91 764.60 470.56 759.89 C 465.82 761.61 461.27 763.81 456.68 765.87 M 447.22 773.03 C 446.04 775.82 443.92 778.77 444.85 781.95 C 445.22 783.57 447.24 785.14 448.68 783.60 C 451.39 780.35 448.72 776.17 447.22 773.03 Z" />
<path fill="#000000" opacity="1.00" d=" M 637.31 496.28 C 649.55 484.99 666.87 481.43 683.04 480.99 C 694.28 480.33 705.55 483.02 715.59 488.02 C 715.59 486.18 715.74 484.32 717.12 482.96 C 722.63 483.06 728.16 482.96 733.68 483.02 C 734.08 483.48 734.87 484.40 735.26 484.86 C 735.23 495.56 735.24 506.27 735.26 516.97 C 735.50 518.54 734.74 519.85 733.80 521.03 C 728.23 520.98 722.66 520.95 717.09 521.05 C 714.71 518.55 716.28 514.86 715.03 511.91 C 713.36 507.52 709.06 504.95 705.07 502.93 C 695.63 498.68 684.71 498.34 674.74 500.75 C 668.33 502.29 662.18 506.61 660.10 513.09 C 657.61 520.77 658.97 530.28 665.28 535.78 C 671.70 541.48 680.72 542.80 689.01 542.55 C 696.61 542.37 704.72 540.68 710.46 535.35 C 712.84 533.29 714.22 530.42 715.85 527.80 C 716.61 526.25 718.50 526.42 719.94 526.41 C 724.32 526.49 728.71 526.35 733.10 526.47 C 734.39 526.32 735.16 527.51 736.13 528.15 C 735.63 535.09 732.70 541.81 727.70 546.70 C 720.03 554.29 709.35 557.98 698.81 559.25 C 687.20 560.60 675.41 560.05 663.89 558.13 C 653.32 556.12 642.39 552.31 635.08 544.02 C 623.80 530.67 624.20 508.32 637.31 496.28 Z" />
<path fill="#000000" opacity="1.00" d=" M 480.03 482.96 C 510.07 483.12 540.11 482.95 570.15 483.04 C 571.68 482.85 573.16 484.36 572.96 485.90 C 573.03 489.29 573.04 492.68 572.96 496.07 C 573.13 497.42 572.15 498.42 571.19 499.20 C 553.95 513.05 536.67 526.87 519.45 540.75 C 532.08 540.76 544.70 540.75 557.33 540.76 C 557.39 537.19 557.23 533.63 557.36 530.07 C 557.18 528.77 558.27 527.97 559.01 527.12 C 564.40 527.24 569.79 527.22 575.18 527.13 C 575.77 528.04 576.97 528.73 576.83 529.97 C 576.96 538.98 576.73 548.00 576.93 557.01 C 576.06 557.71 575.26 558.79 574.00 558.63 C 542.32 558.71 510.65 558.63 478.97 558.69 C 477.56 558.80 475.57 558.45 475.42 556.72 C 475.19 552.51 475.30 548.27 475.37 544.06 C 475.22 542.74 476.43 542.01 477.29 541.28 C 495.66 527.51 514.06 513.77 532.39 499.94 C 520.92 499.89 509.45 499.92 497.98 499.92 C 497.97 504.21 497.98 508.51 497.98 512.81 C 497.53 513.23 496.64 514.08 496.19 514.50 C 490.82 514.46 485.46 514.50 480.09 514.47 C 479.66 514.02 478.81 513.13 478.39 512.68 C 478.44 503.75 478.33 494.82 478.42 485.90 C 478.24 484.63 479.39 483.85 480.03 482.96 Z" />
<path fill="#000000" opacity="1.00" d=" M 547.41 747.51 C 558.32 744.09 570.87 752.45 571.70 763.87 C 573.28 774.64 563.91 785.42 552.99 785.15 C 542.64 785.74 533.19 776.35 533.51 766.03 C 533.22 757.60 539.40 749.77 547.41 747.51 M 549.37 755.49 C 546.62 756.43 544.15 758.35 542.80 760.95 C 539.33 767.30 543.76 776.10 550.98 776.92 C 557.82 778.28 564.61 771.78 563.63 764.90 C 563.27 758.17 555.68 753.29 549.37 755.49 Z" />
<path fill="#000000" opacity="1.00" d=" M 600.37 747.62 C 606.11 746.00 612.68 746.88 617.43 750.63 C 622.56 754.34 625.57 760.70 625.10 767.03 C 624.88 776.83 615.88 785.51 606.03 785.14 C 595.77 785.57 586.51 776.21 586.86 766.00 C 586.58 757.72 592.56 750.02 600.37 747.62 M 603.29 755.30 C 599.49 756.34 596.13 759.37 595.28 763.30 C 593.50 769.55 598.39 776.60 604.89 776.99 C 611.55 777.95 617.90 771.58 616.98 764.93 C 616.64 758.41 609.51 753.55 603.29 755.30 Z" />
<path fill="#000000" opacity="1.00" d=" M 653.46 747.71 C 664.18 743.95 676.92 751.76 678.24 763.06 C 680.05 772.83 672.87 783.09 663.11 784.81 C 652.48 787.27 641.15 778.93 640.29 768.09 C 639.07 759.24 645.04 750.38 653.46 747.71 M 657.18 755.16 C 653.84 755.92 650.73 758.15 649.29 761.31 C 646.25 767.40 650.22 775.57 656.94 776.81 C 663.55 778.54 670.67 772.79 670.36 765.98 C 670.68 759.24 663.66 753.72 657.18 755.16 Z" />
</g>
<g id="#2225b8ff">
<path fill="#2225b8" opacity="1.00" d=" M 502.56 7.80 C 597.79 1.52 694.58 21.65 779.35 65.51 C 841.98 97.77 898.07 142.67 943.24 196.74 C 1012.60 279.26 1055.57 383.49 1064.66 490.90 C 1073.01 585.74 1055.09 682.73 1013.34 768.30 C 981.29 834.43 935.25 893.72 879.10 941.13 C 816.10 994.53 740.43 1032.92 660.08 1052.07 C 563.27 1075.45 459.87 1070.60 365.67 1038.30 C 315.20 1021.09 267.37 996.18 224.28 964.78 C 168.66 924.20 120.97 872.74 85.05 814.00 C 39.67 740.32 12.84 655.34 7.68 568.96 C 3.13 495.41 14.19 420.94 39.94 351.90 C 67.19 278.32 111.16 211.01 167.53 156.43 C 223.03 102.47 290.50 60.88 363.70 35.69 C 408.44 20.17 455.31 10.83 502.56 7.80 M 509.56 100.83 C 448.89 104.41 389.17 121.25 335.26 149.22 C 270.57 182.61 214.78 232.82 174.13 293.16 C 150.77 327.93 132.59 366.14 119.97 406.07 C 103.78 457.21 97.49 511.39 100.91 564.91 C 105.82 644.52 133.53 722.46 179.32 787.72 C 219.59 844.81 273.54 892.34 335.71 924.33 C 395.56 955.34 462.61 972.49 530.06 973.24 C 619.86 974.97 709.77 947.55 783.76 896.74 C 814.22 875.85 841.92 850.96 866.20 823.15 C 920.42 761.14 956.19 683.32 968.49 601.92 C 978.27 536.23 973.23 468.27 953.01 404.97 C 932.43 339.99 896.59 279.83 848.71 231.26 C 794.05 174.98 723.70 134.38 647.90 114.36 C 602.92 102.38 556.00 98.06 509.56 100.83 Z" />
</g>
<g id="#8585a7ff">
<path fill="#8585a7" opacity="1.00" d=" M 191.24 331.24 C 219.05 331.30 246.87 331.22 274.68 331.24 C 291.19 349.81 307.74 368.34 324.23 386.92 C 278.28 405.34 233.50 426.96 191.24 452.82 C 191.28 412.30 191.29 371.77 191.24 331.24 Z" />
<path fill="#8585a7" opacity="1.00" d=" M 517.95 345.92 C 565.33 339.28 613.53 337.43 661.16 342.50 C 703.19 346.97 744.77 356.89 783.86 373.10 C 818.17 387.43 850.70 406.16 880.04 429.03 C 890.30 437.20 900.39 445.65 909.51 455.08 C 883.24 436.91 854.55 422.25 824.44 411.58 C 804.95 404.80 784.91 399.70 764.77 395.31 C 671.28 375.19 574.28 376.35 479.96 389.98 C 430.03 397.24 380.67 408.21 332.21 422.21 C 272.40 439.64 213.52 460.93 157.88 489.10 C 190.35 465.74 225.16 445.76 260.97 427.99 C 298.74 409.18 337.83 393.06 377.82 379.62 C 423.41 364.30 470.30 352.63 517.95 345.92 Z" />
<path fill="#8585a7" opacity="1.00" d=" M 529.50 395.75 C 582.35 390.71 635.69 389.93 688.55 395.18 C 730.70 399.39 772.57 407.27 813.03 419.92 C 844.12 430.10 873.81 444.67 900.76 463.22 C 915.40 473.56 929.69 484.88 940.80 499.07 C 914.96 487.39 887.60 479.48 860.07 472.92 C 817.02 462.59 772.87 458.10 728.87 454.17 C 625.38 445.76 521.15 448.01 417.88 458.32 C 370.76 463.07 323.82 469.52 277.17 477.66 C 235.64 485.06 194.28 493.63 153.59 504.78 C 188.50 486.19 225.03 470.82 262.16 457.28 C 348.40 426.28 438.21 404.58 529.50 395.75 Z" />
<path fill="#8585a7" opacity="1.00" d=" M 340.11 479.61 C 438.33 465.52 537.68 458.99 636.90 461.06 C 687.77 462.18 738.61 465.67 789.09 472.15 C 826.69 476.70 863.96 484.42 900.06 495.90 C 914.17 500.53 928.31 505.42 941.44 512.43 C 945.34 514.15 948.07 518.67 946.61 522.91 C 945.11 527.82 939.72 529.47 935.64 531.63 C 915.11 541.09 893.37 547.63 871.57 553.43 C 838.12 562.19 803.92 567.74 769.55 571.32 C 664.56 583.17 558.44 582.71 453.21 574.24 C 361.63 566.35 270.36 553.07 181.00 531.29 C 167.75 528.14 154.67 524.30 141.54 520.70 C 162.40 514.08 183.73 509.03 205.06 504.17 C 249.69 494.04 294.80 486.06 340.11 479.61 M 637.31 496.28 C 624.20 508.32 623.80 530.67 635.08 544.02 C 642.39 552.31 653.32 556.12 663.89 558.13 C 675.41 560.05 687.20 560.60 698.81 559.25 C 709.35 557.98 720.03 554.29 727.70 546.70 C 732.70 541.81 735.63 535.09 736.13 528.15 C 735.16 527.51 734.39 526.32 733.10 526.47 C 728.71 526.35 724.32 526.49 719.94 526.41 C 718.50 526.42 716.61 526.25 715.85 527.80 C 714.22 530.42 712.84 533.29 710.46 535.35 C 704.72 540.68 696.61 542.37 689.01 542.55 C 680.72 542.80 671.70 541.48 665.28 535.78 C 658.97 530.28 657.61 520.77 660.10 513.09 C 662.18 506.61 668.33 502.29 674.74 500.75 C 684.71 498.34 695.63 498.68 705.07 502.93 C 709.06 504.95 713.36 507.52 715.03 511.91 C 716.28 514.86 714.71 518.55 717.09 521.05 C 722.66 520.95 728.23 520.98 733.80 521.03 C 734.74 519.85 735.50 518.54 735.26 516.97 C 735.24 506.27 735.23 495.56 735.26 484.86 C 734.87 484.40 734.08 483.48 733.68 483.02 C 728.16 482.96 722.63 483.06 717.12 482.96 C 715.74 484.32 715.59 486.18 715.59 488.02 C 705.55 483.02 694.28 480.33 683.04 480.99 C 666.87 481.43 649.55 484.99 637.31 496.28 M 480.03 482.96 C 479.39 483.85 478.24 484.63 478.42 485.90 C 478.33 494.82 478.44 503.75 478.39 512.68 C 478.81 513.13 479.66 514.02 480.09 514.47 C 485.46 514.50 490.82 514.46 496.19 514.50 C 496.64 514.08 497.53 513.23 497.98 512.81 C 497.98 508.51 497.97 504.21 497.98 499.92 C 509.45 499.92 520.92 499.89 532.39 499.94 C 514.06 513.77 495.66 527.51 477.29 541.28 C 476.43 542.01 475.22 542.74 475.37 544.06 C 475.30 548.27 475.19 552.51 475.42 556.72 C 475.57 558.45 477.56 558.80 478.97 558.69 C 510.65 558.63 542.32 558.71 574.00 558.63 C 575.26 558.79 576.06 557.71 576.93 557.01 C 576.73 548.00 576.96 538.98 576.83 529.97 C 576.97 528.73 575.77 528.04 575.18 527.13 C 569.79 527.22 564.40 527.24 559.01 527.12 C 558.27 527.97 557.18 528.77 557.36 530.07 C 557.23 533.63 557.39 537.19 557.33 540.76 C 544.70 540.75 532.08 540.76 519.45 540.75 C 536.67 526.87 553.95 513.05 571.19 499.20 C 572.15 498.42 573.13 497.42 572.96 496.07 C 573.04 492.68 573.03 489.29 572.96 485.90 C 573.16 484.36 571.68 482.85 570.15 483.04 C 540.11 482.95 510.07 483.12 480.03 482.96 Z" />
<path fill="#8585a7" opacity="1.00" d=" M 154.75 537.02 C 161.30 538.11 167.61 540.30 174.08 541.76 C 257.79 562.34 343.19 575.55 428.95 583.82 C 532.99 593.59 637.97 595.21 742.10 585.73 C 773.01 582.78 803.94 579.44 834.47 573.64 C 870.74 566.41 906.89 557.17 940.76 542.07 C 932.35 552.85 921.99 561.93 911.19 570.25 C 887.94 587.96 862.07 602.07 835.05 613.12 C 805.77 624.98 774.86 632.20 743.91 638.14 C 649.52 655.40 552.29 651.79 457.98 635.88 C 409.94 627.71 362.49 616.21 315.94 601.79 C 260.60 584.62 206.15 563.91 154.75 537.02 Z" />
<path fill="#8585a7" opacity="1.00" d=" M 157.62 551.77 C 191.46 569.08 226.67 583.59 262.43 596.43 C 352.28 628.37 445.97 650.27 541.10 658.13 C 625.04 664.94 710.50 660.76 792.17 639.20 C 834.22 628.76 874.22 610.44 909.79 585.74 C 893.95 601.80 876.08 615.79 857.42 628.44 C 831.65 645.71 804.02 660.25 775.09 671.49 C 742.59 684.11 708.51 692.45 673.98 697.09 C 627.62 703.30 580.52 702.54 534.10 697.25 C 450.83 687.56 369.84 662.56 293.44 628.45 C 246.01 607.05 199.84 582.32 157.62 551.77 Z" />
<path fill="#8585a7" opacity="1.00" d=" M 191.23 588.22 C 233.50 614.01 278.16 635.82 324.13 654.16 C 307.70 672.74 291.15 691.22 274.68 709.76 C 246.86 709.77 219.05 709.70 191.24 709.76 C 191.28 669.25 191.29 628.73 191.23 588.22 Z" />
<path fill="#8585a7" opacity="1.00" d=" M 535.87 709.22 C 570.06 713.07 604.58 714.15 638.94 712.17 C 641.32 716.38 643.72 720.59 646.02 724.86 C 612.16 724.86 578.30 724.87 544.44 724.83 C 541.65 719.59 538.75 714.41 535.87 709.22 Z" />
<path fill="#8585a7" opacity="1.00" d=" M 467.59 736.51 C 549.03 736.51 630.48 736.45 711.93 736.50 C 718.58 742.87 722.49 751.92 723.25 761.05 C 723.90 768.15 721.01 775.10 716.54 780.50 C 711.32 786.80 704.63 791.99 697.01 795.04 C 694.15 796.25 690.98 795.79 687.97 795.89 C 629.31 795.87 570.65 795.82 511.99 795.86 C 497.13 776.12 482.40 756.28 467.59 736.51 M 547.41 747.51 C 539.40 749.77 533.22 757.60 533.51 766.03 C 533.19 776.35 542.64 785.74 552.99 785.15 C 563.91 785.42 573.28 774.64 571.70 763.87 C 570.87 752.45 558.32 744.09 547.41 747.51 M 600.37 747.62 C 592.56 750.02 586.58 757.72 586.86 766.00 C 586.51 776.21 595.77 785.57 606.03 785.14 C 615.88 785.51 624.88 776.83 625.10 767.03 C 625.57 760.70 622.56 754.34 617.43 750.63 C 612.68 746.88 606.11 746.00 600.37 747.62 M 653.46 747.71 C 645.04 750.38 639.07 759.24 640.29 768.09 C 641.15 778.93 652.48 787.27 663.11 784.81 C 672.87 783.09 680.05 772.83 678.24 763.06 C 676.92 751.76 664.18 743.95 653.46 747.71 Z" />
<path fill="#8585a7" opacity="1.00" d=" M 444.65 750.69 C 445.30 748.95 447.70 748.57 448.63 750.29 C 450.64 753.61 448.07 757.21 446.75 760.27 C 445.43 757.31 443.15 753.99 444.65 750.69 Z" />
<path fill="#8585a7" opacity="1.00" d=" M 549.37 755.49 C 555.68 753.29 563.27 758.17 563.63 764.90 C 564.61 771.78 557.82 778.28 550.98 776.92 C 543.76 776.10 539.33 767.30 542.80 760.95 C 544.15 758.35 546.62 756.43 549.37 755.49 Z" />
<path fill="#8585a7" opacity="1.00" d=" M 603.29 755.30 C 609.51 753.55 616.64 758.41 616.98 764.93 C 617.90 771.58 611.55 777.95 604.89 776.99 C 598.39 776.60 593.50 769.55 595.28 763.30 C 596.13 759.37 599.49 756.34 603.29 755.30 Z" />
<path fill="#8585a7" opacity="1.00" d=" M 657.18 755.16 C 663.66 753.72 670.68 759.24 670.36 765.98 C 670.67 772.79 663.55 778.54 656.94 776.81 C 650.22 775.57 646.25 767.40 649.29 761.31 C 650.73 758.15 653.84 755.92 657.18 755.16 Z" />
<path fill="#8585a7" opacity="1.00" d=" M 456.68 765.87 C 461.27 763.81 465.82 761.61 470.56 759.89 C 473.91 764.60 477.44 769.18 480.90 773.81 C 472.83 771.15 464.67 768.77 456.68 765.87 Z" />
<path fill="#8585a7" opacity="1.00" d=" M 447.22 773.03 C 448.72 776.17 451.39 780.35 448.68 783.60 C 447.24 785.14 445.22 783.57 444.85 781.95 C 443.92 778.77 446.04 775.82 447.22 773.03 Z" />
</g>
</svg>
